<mxfile host="app.diagrams.net" agent="Mozilla/5.0 (Macintosh; Intel Mac OS X 10_15_7) AppleWebKit/537.36 (KHTML, like Gecko) Chrome/131.0.0.0 Safari/537.36 Edg/131.0.0.0" version="25.0.3">
  <diagram name="Page-1" id="VUISwlMJgBCTyI_4sheL">
    <mxGraphModel dx="461" dy="1478" grid="1" gridSize="10" guides="1" tooltips="1" connect="1" arrows="1" fold="1" page="1" pageScale="1" pageWidth="850" pageHeight="1100" math="0" shadow="0">
      <root>
        <mxCell id="0" />
        <mxCell id="1" parent="0" />
        <mxCell id="pXlkx7gUOqcdNYl49wRo-6" value="" style="edgeStyle=orthogonalEdgeStyle;rounded=0;sketch=1;hachureGap=4;jiggle=2;curveFitting=1;orthogonalLoop=1;jettySize=auto;html=1;fontFamily=Architects Daughter;fontSource=https%3A%2F%2Ffonts.googleapis.com%2Fcss%3Ffamily%3DArchitects%2BDaughter;" edge="1" parent="1" source="pXlkx7gUOqcdNYl49wRo-1" target="pXlkx7gUOqcdNYl49wRo-5">
          <mxGeometry relative="1" as="geometry" />
        </mxCell>
        <mxCell id="pXlkx7gUOqcdNYl49wRo-1" value="unix文件" style="rounded=0;whiteSpace=wrap;html=1;sketch=1;hachureGap=4;jiggle=2;curveFitting=1;fontFamily=Architects Daughter;fontSource=https%3A%2F%2Ffonts.googleapis.com%2Fcss%3Ffamily%3DArchitects%2BDaughter;" vertex="1" parent="1">
          <mxGeometry x="130" y="-870" width="70" height="40" as="geometry" />
        </mxCell>
        <mxCell id="pXlkx7gUOqcdNYl49wRo-8" value="" style="edgeStyle=orthogonalEdgeStyle;rounded=0;sketch=1;hachureGap=4;jiggle=2;curveFitting=1;orthogonalLoop=1;jettySize=auto;html=1;fontFamily=Architects Daughter;fontSource=https%3A%2F%2Ffonts.googleapis.com%2Fcss%3Ffamily%3DArchitects%2BDaughter;" edge="1" parent="1" source="pXlkx7gUOqcdNYl49wRo-5" target="pXlkx7gUOqcdNYl49wRo-7">
          <mxGeometry relative="1" as="geometry" />
        </mxCell>
        <mxCell id="pXlkx7gUOqcdNYl49wRo-12" value="&lt;div&gt;git update-index --add --cacheinfo&lt;/div&gt;git write-tree" style="edgeLabel;html=1;align=center;verticalAlign=middle;resizable=0;points=[];sketch=1;hachureGap=4;jiggle=2;curveFitting=1;fontFamily=Architects Daughter;fontSource=https%3A%2F%2Ffonts.googleapis.com%2Fcss%3Ffamily%3DArchitects%2BDaughter;" vertex="1" connectable="0" parent="pXlkx7gUOqcdNYl49wRo-8">
          <mxGeometry x="-0.2675" y="1" relative="1" as="geometry">
            <mxPoint as="offset" />
          </mxGeometry>
        </mxCell>
        <mxCell id="pXlkx7gUOqcdNYl49wRo-5" value="blob" style="rounded=0;whiteSpace=wrap;html=1;sketch=1;hachureGap=4;jiggle=2;curveFitting=1;fontFamily=Architects Daughter;fontSource=https%3A%2F%2Ffonts.googleapis.com%2Fcss%3Ffamily%3DArchitects%2BDaughter;fillColor=#dae8fc;strokeColor=#6c8ebf;" vertex="1" parent="1">
          <mxGeometry x="130" y="-720" width="70" height="40" as="geometry" />
        </mxCell>
        <mxCell id="pXlkx7gUOqcdNYl49wRo-10" value="" style="edgeStyle=orthogonalEdgeStyle;rounded=0;sketch=1;hachureGap=4;jiggle=2;curveFitting=1;orthogonalLoop=1;jettySize=auto;html=1;fontFamily=Architects Daughter;fontSource=https%3A%2F%2Ffonts.googleapis.com%2Fcss%3Ffamily%3DArchitects%2BDaughter;" edge="1" parent="1" source="pXlkx7gUOqcdNYl49wRo-7" target="pXlkx7gUOqcdNYl49wRo-9">
          <mxGeometry relative="1" as="geometry" />
        </mxCell>
        <mxCell id="pXlkx7gUOqcdNYl49wRo-11" value="git commit-tree&lt;div&gt;指定父提交hash值和本次提交的树对象hash值&lt;/div&gt;" style="edgeLabel;html=1;align=center;verticalAlign=middle;resizable=0;points=[];sketch=1;hachureGap=4;jiggle=2;curveFitting=1;fontFamily=Architects Daughter;fontSource=https%3A%2F%2Ffonts.googleapis.com%2Fcss%3Ffamily%3DArchitects%2BDaughter;" vertex="1" connectable="0" parent="pXlkx7gUOqcdNYl49wRo-10">
          <mxGeometry x="-0.1286" relative="1" as="geometry">
            <mxPoint as="offset" />
          </mxGeometry>
        </mxCell>
        <mxCell id="pXlkx7gUOqcdNYl49wRo-7" value="tree" style="rounded=0;whiteSpace=wrap;html=1;sketch=1;hachureGap=4;jiggle=2;curveFitting=1;fontFamily=Architects Daughter;fontSource=https%3A%2F%2Ffonts.googleapis.com%2Fcss%3Ffamily%3DArchitects%2BDaughter;fillColor=#dae8fc;strokeColor=#6c8ebf;" vertex="1" parent="1">
          <mxGeometry x="425" y="-720" width="70" height="40" as="geometry" />
        </mxCell>
        <mxCell id="pXlkx7gUOqcdNYl49wRo-14" value="" style="edgeStyle=orthogonalEdgeStyle;rounded=0;sketch=1;hachureGap=4;jiggle=2;curveFitting=1;orthogonalLoop=1;jettySize=auto;html=1;fontFamily=Architects Daughter;fontSource=https%3A%2F%2Ffonts.googleapis.com%2Fcss%3Ffamily%3DArchitects%2BDaughter;" edge="1" parent="1" source="pXlkx7gUOqcdNYl49wRo-9" target="pXlkx7gUOqcdNYl49wRo-13">
          <mxGeometry relative="1" as="geometry" />
        </mxCell>
        <mxCell id="pXlkx7gUOqcdNYl49wRo-15" value="把comimt的hash值放进&lt;div&gt;.git/refs/&amp;lt;refname&amp;gt;文件中&lt;/div&gt;&lt;div&gt;&lt;br&gt;&lt;/div&gt;&lt;div&gt;安全的方式：使用&lt;/div&gt;&lt;div&gt;`git update-ref &amp;lt;ref文件&amp;gt; &amp;lt;hash&amp;gt;`&lt;/div&gt;" style="edgeLabel;html=1;align=center;verticalAlign=middle;resizable=0;points=[];sketch=1;hachureGap=4;jiggle=2;curveFitting=1;fontFamily=Architects Daughter;fontSource=https%3A%2F%2Ffonts.googleapis.com%2Fcss%3Ffamily%3DArchitects%2BDaughter;" vertex="1" connectable="0" parent="pXlkx7gUOqcdNYl49wRo-14">
          <mxGeometry x="-0.2664" relative="1" as="geometry">
            <mxPoint as="offset" />
          </mxGeometry>
        </mxCell>
        <mxCell id="pXlkx7gUOqcdNYl49wRo-9" value="commit" style="rounded=0;whiteSpace=wrap;html=1;sketch=1;hachureGap=4;jiggle=2;curveFitting=1;fontFamily=Architects Daughter;fontSource=https%3A%2F%2Ffonts.googleapis.com%2Fcss%3Ffamily%3DArchitects%2BDaughter;fillColor=#dae8fc;strokeColor=#6c8ebf;" vertex="1" parent="1">
          <mxGeometry x="425" y="-520" width="70" height="40" as="geometry" />
        </mxCell>
        <mxCell id="pXlkx7gUOqcdNYl49wRo-17" value="" style="edgeStyle=orthogonalEdgeStyle;rounded=0;sketch=1;hachureGap=4;jiggle=2;curveFitting=1;orthogonalLoop=1;jettySize=auto;html=1;fontFamily=Architects Daughter;fontSource=https%3A%2F%2Ffonts.googleapis.com%2Fcss%3Ffamily%3DArchitects%2BDaughter;" edge="1" parent="1" source="pXlkx7gUOqcdNYl49wRo-13" target="pXlkx7gUOqcdNYl49wRo-16">
          <mxGeometry relative="1" as="geometry" />
        </mxCell>
        <mxCell id="pXlkx7gUOqcdNYl49wRo-18" value="&lt;pre style=&quot;overflow: auto; font-size: 0.9em; background: rgb(238, 238, 238); border: 1px solid rgb(239, 238, 230); border-radius: 3px; color: rgb(51, 51, 51); font-variant-ligatures: none; line-height: 15.12px; margin-top: 10px; margin-bottom: 10px; padding: 2px; box-sizing: border-box; text-align: start;&quot; class=&quot;highlight&quot;&gt;&lt;code style=&quot;font-size: 1em; border-radius: 3px; display: inline; padding: 0px; margin-bottom: 1em; overflow: auto; line-height: 18px; background-image: initial; background-position: initial; background-size: initial; background-repeat: initial; background-attachment: initial; background-origin: initial; background-clip: initial; border: 0px; box-sizing: border-box;&quot; data-lang=&quot;console&quot; class=&quot;language-console&quot;&gt;git log --pretty=oneline &amp;lt;refname&amp;gt;&lt;/code&gt;&lt;/pre&gt;" style="edgeLabel;html=1;align=center;verticalAlign=middle;resizable=0;points=[];sketch=1;hachureGap=4;jiggle=2;curveFitting=1;fontFamily=Architects Daughter;fontSource=https%3A%2F%2Ffonts.googleapis.com%2Fcss%3Ffamily%3DArchitects%2BDaughter;" vertex="1" connectable="0" parent="pXlkx7gUOqcdNYl49wRo-17">
          <mxGeometry x="0.1643" y="1" relative="1" as="geometry">
            <mxPoint as="offset" />
          </mxGeometry>
        </mxCell>
        <mxCell id="pXlkx7gUOqcdNYl49wRo-13" value="ref" style="rounded=0;whiteSpace=wrap;html=1;sketch=1;hachureGap=4;jiggle=2;curveFitting=1;fontFamily=Architects Daughter;fontSource=https%3A%2F%2Ffonts.googleapis.com%2Fcss%3Ffamily%3DArchitects%2BDaughter;fillColor=#d5e8d4;strokeColor=#82b366;" vertex="1" parent="1">
          <mxGeometry x="720" y="-520" width="70" height="40" as="geometry" />
        </mxCell>
        <mxCell id="pXlkx7gUOqcdNYl49wRo-16" value="直接看" style="rounded=0;whiteSpace=wrap;html=1;sketch=1;hachureGap=4;jiggle=2;curveFitting=1;fontFamily=Architects Daughter;fontSource=https%3A%2F%2Ffonts.googleapis.com%2Fcss%3Ffamily%3DArchitects%2BDaughter;fillColor=#d5e8d4;strokeColor=#82b366;" vertex="1" parent="1">
          <mxGeometry x="720" y="-640" width="70" height="40" as="geometry" />
        </mxCell>
        <mxCell id="pXlkx7gUOqcdNYl49wRo-19" value="&lt;span style=&quot;color: rgb(78, 68, 60); font-family: sans-serif; font-size: 14px; font-style: normal; font-variant-ligatures: normal; font-variant-caps: normal; font-weight: 400; letter-spacing: normal; orphans: 2; text-align: start; text-indent: 0px; text-transform: none; widows: 2; word-spacing: 0px; -webkit-text-stroke-width: 0px; white-space: normal; background-color: rgb(252, 252, 250); text-decoration-thickness: initial; text-decoration-style: initial; text-decoration-color: initial; display: inline !important; float: none;&quot;&gt;HEAD 文件通常是一个符号引用（symbolic reference），指向目前所在的分支。 所谓符号引用，表示它是一个指向其他引用的指针。&lt;/span&gt;" style="text;whiteSpace=wrap;html=1;fontFamily=Architects Daughter;fontSource=https%3A%2F%2Ffonts.googleapis.com%2Fcss%3Ffamily%3DArchitects%2BDaughter;" vertex="1" parent="1">
          <mxGeometry x="495" y="-940" width="560" height="60" as="geometry" />
        </mxCell>
        <mxCell id="pXlkx7gUOqcdNYl49wRo-21" value="commit" style="swimlane;whiteSpace=wrap;html=1;sketch=1;hachureGap=4;jiggle=2;curveFitting=1;fontFamily=Architects Daughter;fontSource=https%3A%2F%2Ffonts.googleapis.com%2Fcss%3Ffamily%3DArchitects%2BDaughter;" vertex="1" parent="1">
          <mxGeometry x="100" y="-390" width="170" height="260" as="geometry">
            <mxRectangle x="100" y="-390" width="140" height="30" as="alternateBounds" />
          </mxGeometry>
        </mxCell>
        <mxCell id="pXlkx7gUOqcdNYl49wRo-22" value="tree" style="swimlane;whiteSpace=wrap;html=1;sketch=1;hachureGap=4;jiggle=2;curveFitting=1;fontFamily=Architects Daughter;fontSource=https%3A%2F%2Ffonts.googleapis.com%2Fcss%3Ffamily%3DArchitects%2BDaughter;" vertex="1" parent="pXlkx7gUOqcdNYl49wRo-21">
          <mxGeometry x="20" y="30" width="120" height="60" as="geometry" />
        </mxCell>
        <mxCell id="pXlkx7gUOqcdNYl49wRo-26" value="father commit&lt;div&gt;（hash）&lt;/div&gt;" style="rounded=0;whiteSpace=wrap;html=1;sketch=1;hachureGap=4;jiggle=2;curveFitting=1;fontFamily=Architects Daughter;fontSource=https%3A%2F%2Ffonts.googleapis.com%2Fcss%3Ffamily%3DArchitects%2BDaughter;" vertex="1" parent="pXlkx7gUOqcdNYl49wRo-21">
          <mxGeometry x="20" y="100" width="120" height="40" as="geometry" />
        </mxCell>
        <mxCell id="pXlkx7gUOqcdNYl49wRo-28" value="author info" style="rounded=0;whiteSpace=wrap;html=1;sketch=1;hachureGap=4;jiggle=2;curveFitting=1;fontFamily=Architects Daughter;fontSource=https%3A%2F%2Ffonts.googleapis.com%2Fcss%3Ffamily%3DArchitects%2BDaughter;" vertex="1" parent="pXlkx7gUOqcdNYl49wRo-21">
          <mxGeometry x="20" y="160" width="120" height="30" as="geometry" />
        </mxCell>
        <mxCell id="pXlkx7gUOqcdNYl49wRo-37" value="commit message" style="rounded=0;whiteSpace=wrap;html=1;sketch=1;hachureGap=4;jiggle=2;curveFitting=1;fontFamily=Architects Daughter;fontSource=https%3A%2F%2Ffonts.googleapis.com%2Fcss%3Ffamily%3DArchitects%2BDaughter;" vertex="1" parent="pXlkx7gUOqcdNYl49wRo-21">
          <mxGeometry x="20" y="210" width="120" height="30" as="geometry" />
        </mxCell>
        <mxCell id="pXlkx7gUOqcdNYl49wRo-24" value="father commit" style="swimlane;whiteSpace=wrap;html=1;sketch=1;hachureGap=4;jiggle=2;curveFitting=1;fontFamily=Architects Daughter;fontSource=https%3A%2F%2Ffonts.googleapis.com%2Fcss%3Ffamily%3DArchitects%2BDaughter;" vertex="1" parent="1">
          <mxGeometry x="490" y="-390" width="250" height="250" as="geometry" />
        </mxCell>
      </root>
    </mxGraphModel>
  </diagram>
</mxfile>
